<?xml version="1.0" encoding="UTF-8" standalone="no"?>
<!-- Created with Inkscape (http://www.inkscape.org/) -->

<svg
   width="193mm"
   height="193mm"
   viewBox="0 0 193 193"
   version="1.1"
   id="svg1985"
   xml:space="preserve"
   inkscape:version="1.2.2 (b0a8486541, 2022-12-01)"
   sodipodi:docname="logo_boriel.svg"
   inkscape:export-filename="logo_boriel.png"
   inkscape:export-xdpi="300"
   inkscape:export-ydpi="300"
   xmlns:inkscape="http://www.inkscape.org/namespaces/inkscape"
   xmlns:sodipodi="http://sodipodi.sourceforge.net/DTD/sodipodi-0.dtd"
   xmlns="http://www.w3.org/2000/svg"
   xmlns:svg="http://www.w3.org/2000/svg"><sodipodi:namedview
     id="namedview1987"
     pagecolor="#ffffff"
     bordercolor="#666666"
     borderopacity="1.0"
     inkscape:showpageshadow="2"
     inkscape:pageopacity="0.0"
     inkscape:pagecheckerboard="0"
     inkscape:deskcolor="#d1d1d1"
     inkscape:document-units="mm"
     showgrid="false"
     inkscape:zoom="1.1036342"
     inkscape:cx="304.44871"
     inkscape:cy="443.0816"
     inkscape:window-width="1920"
     inkscape:window-height="1011"
     inkscape:window-x="0"
     inkscape:window-y="32"
     inkscape:window-maximized="1"
     inkscape:current-layer="layer1" /><defs
     id="defs1982" /><g
     inkscape:label="Capa 1"
     inkscape:groupmode="layer"
     id="layer1"><rect
       style="fill:#000000;fill-opacity:0.99999994;stroke:#ff0000;stroke-width:0;stroke-linejoin:round;stroke-miterlimit:4.4;paint-order:stroke fill markers"
       id="rect360"
       width="228.49767"
       height="214.23477"
       x="-12.356893"
       y="-9.0134201" /><path
       style="fill:#444444;stroke-width:0.264583"
       d="M 194.05557,97.206252 V -0.16041467 H 96.688903 c -64.734723,0 -97.3666661,-0.0886738 -97.3666661,-0.26458333 0,-0.17591087 32.7201391,-0.26458334 97.6312491,-0.26458334 H 194.58473 V 96.941669 c 0,64.911101 -0.0887,97.631241 -0.26458,97.631241 -0.17591,0 -0.26458,-32.63194 -0.26458,-97.366658 z"
       id="path2029" /><path
       style="fill:#000000;stroke-width:0.264583"
       d="m -179.47035,63.733897 v -6.085415 h -6.08541 -6.08542 v -6.08542 -6.08542 h -6.08542 -6.08542 V 27.221392 8.9651418 h 6.08542 6.08542 v -6.08541 -6.08542 h 6.08542 6.08541 v -6.08542 -6.0854118 h 30.42709 30.42708 v 6.0854118 6.08542 h -24.34167 -24.34166 v 6.08542 6.08541 h -6.08542 -6.08542 v 18.2562502 18.25625 h 6.08542 6.08542 v 6.08542 6.08542 h 12.17083 12.17083 v -12.17084 -12.17083 h -6.08541 -6.08542 v -6.08542 -6.08541 h 18.25625 18.25625 v 24.34166 24.341665 h -30.42708 -30.42709 z m 73.02501,-24.341665 V 8.9651418 h 36.512505 36.5125 v 6.0854202 6.08542 h 6.08542 6.08541 v 24.34166 24.341665 h -12.17083 -12.17083 V 45.477642 21.135982 h -6.08542 -6.08542 v 24.34166 24.341665 h -12.17083 -12.17083 V 45.477642 21.135982 h -6.08542 -6.08542 v 24.34166 24.341665 h -6.085415 -6.08542 z"
       id="path2233" /><path
       style="fill:#cc00cc;stroke-width:0.264583"
       d="M 48.418751,41.804167 V 35.71875 h 3.042709 3.042708 v -3.042708 -3.042708 h 3.042709 3.042708 v -3.042709 -3.042708 h 3.042709 3.042708 V 20.505209 17.4625 h 3.042709 3.042708 V 14.419792 11.377083 H 60.589585 48.418751 V 8.3343752 5.2916667 H 69.717711 91.01667 V 11.377083 17.4625 h -3.042709 -3.042708 v 3.042709 3.042708 h -3.042709 -3.042708 v 3.042708 3.042709 h -3.042709 -3.042708 v 3.042708 3.042708 h -3.042708 -3.042709 v 3.042709 3.042708 H 78.845836 91.01667 v 3.042709 3.042708 H 69.717711 48.418751 Z m 48.683335,0 V 35.71875 h 3.042714 3.04271 v -3.042708 -3.042708 h 3.04271 3.04271 v -3.042709 -3.042708 h -3.04271 -3.04271 V 20.505209 17.4625 H 100.1448 97.102086 V 11.377083 5.2916667 h 6.085424 6.08542 V 11.377083 17.4625 h 3.0427 3.04271 v 3.042709 3.042708 h 3.04271 3.04271 V 20.505209 17.4625 h 3.04271 3.04271 V 11.377083 5.2916667 h 6.08541 6.08542 V 11.377083 17.4625 h -3.04271 -3.04271 v 3.042709 3.042708 h -3.04271 -3.0427 v 3.042708 3.042709 h 3.0427 3.04271 v 3.042708 3.042708 h 3.04271 3.04271 v 6.085417 6.085417 h -6.08542 -6.08541 V 41.804167 35.71875 h -3.04271 -3.04271 v -3.042708 -3.042708 h -3.04271 -3.04271 v 3.042708 3.042708 h -3.04271 -3.0427 v 6.085417 6.085417 h -6.08542 -6.085424 z"
       id="path2231" /><path
       style="fill:#fe0000;stroke-width:0.264583"
       d="M 24.077084,81.359376 V 78.316668 H 12.038542 0 v -6.085417 -6.085417 h 8.9958336 8.9958334 v 3.042709 3.042708 h 3.042708 3.042709 v -3.042708 -3.042709 h 39.55521 39.555216 v -3.042708 -3.042708 h 6.08542 6.08541 v 3.042708 3.042708 h 18.25625 18.25625 v 3.042709 3.042708 h 3.04271 3.04271 v -3.042708 -3.042709 h 17.99167 17.99166 v 6.085417 6.085417 h -24.07708 -24.07708 v -3.042709 -3.042708 h -6.08542 -6.08542 v 3.042708 3.042709 h -6.08541 -6.08542 v -3.042709 -3.042708 h -3.04271 -3.04271 v 3.042708 3.042709 h -6.08541 -6.08542 v -3.042709 -3.042708 h -3.04271 -3.042714 v 3.042708 3.042709 H 84.931253 72.760419 v -3.042709 -3.042708 h -3.042708 -3.042709 v 3.042708 3.042709 h -9.128125 -9.128126 v -3.042709 -3.042708 h -3.042708 -3.042708 v 3.042708 3.042709 h -6.085417 -6.085417 v 3.042708 3.042709 h -3.042709 -3.042708 z"
       id="path2229" /><text
       xml:space="preserve"
       style="font-size:95.0794px;line-height:125%;font-family:'8BIT WONDER';-inkscape-font-specification:'8BIT WONDER';text-align:center;letter-spacing:0px;word-spacing:0px;text-anchor:middle;fill:none;stroke:#000000;stroke-width:0.495205px;stroke-linecap:butt;stroke-linejoin:miter;stroke-opacity:1"
       x="102.44246"
       y="183.91125"
       id="text3466"><tspan
         sodipodi:role="line"
         id="tspan3464"
         style="font-style:normal;font-variant:normal;font-weight:normal;font-stretch:normal;font-size:95.0794px;font-family:'Press Start 2P';-inkscape-font-specification:'Press Start 2P';fill:#ffffff;stroke-width:0.495205px"
         x="102.44246"
         y="183.91125">Gm</tspan></text><rect
       style="fill:#ffffff;fill-opacity:1;stroke:#ff0000;stroke-width:0;stroke-linejoin:round;stroke-miterlimit:4.4;paint-order:stroke fill markers"
       id="rect3576"
       width="204.53752"
       height="23.415863"
       x="-1.8438658"
       y="176.67807" /><text
       xml:space="preserve"
       style="font-size:16.9333px;line-height:125%;font-family:'8BIT WONDER';-inkscape-font-specification:'8BIT WONDER';text-align:center;letter-spacing:0px;word-spacing:0px;text-anchor:middle;fill:#000000;stroke:#000000;stroke-width:0.264583px;stroke-linecap:butt;stroke-linejoin:miter;stroke-opacity:1"
       x="97.91111"
       y="192.08235"
       id="text3520"><tspan
         sodipodi:role="line"
         id="tspan3518"
         style="font-size:16.9333px;fill:#000000;stroke-width:0.264583px"
         x="97.91111"
         y="192.08235">BORIEL BASIC</tspan></text></g></svg>
